<?xml version="1.0" encoding="iso-8859-1"?>
<!-- Generator: Adobe Illustrator 19.0.0, SVG Export Plug-In . SVG Version: 6.00 Build 0)  -->
<svg version="1.1" id="Capa_1" xmlns="http://www.w3.org/2000/svg" xmlns:xlink="http://www.w3.org/1999/xlink" x="0px" y="0px"
	 viewBox="0 0 496 496" style="enable-background:new 0 0 496 496;" xml:space="preserve">
<g>
	<g>
		<path d="M248,40C133.312,40,40,133.312,40,248c0,114.696,93.312,208,208,208s208-93.304,208-208C456,133.312,362.688,40,248,40z
			 M248,440c-105.864,0-192-86.136-192-192c0-43.952,14.88-84.472,39.816-116.872l25.76,25.76c-0.256,1.032-0.648,2.08-0.84,3.104
			H112v16h8.72c1.232,7.272,4.08,13.992,8.2,19.768l-6.176,6.176l11.312,11.312l6.176-6.176c5.776,4.128,12.496,6.976,19.768,8.208
			V224h16v-8.744c1.032-0.184,2.072-0.584,3.104-0.84l75.184,75.184c-0.832,3.976-1.904,8.128-3.432,12.728
			c-1.048,3.144-1.704,6.392-2.168,9.672H240v16h8.68c0.24,1.752,0.448,3.512,0.856,5.256c1.744,7.504,5.064,14.384,9.528,20.36
			l-5.976,5.984l11.32,11.312l5.952-5.96c6.304,4.704,13.632,8.104,21.584,9.776c1.352,0.28,2.704,0.448,4.048,0.64V384h16v-8.584
			c7.288-1.04,14.256-3.616,20.656-7.456l32.216,32.216C332.472,425.12,291.952,440,248,440z M136.376,171.688l27.944,27.944
			C149.648,197.92,138.08,186.352,136.376,171.688z M266.04,307.384c0.536-1.616,0.92-3.104,1.384-4.648l53.392,53.392
			c-7.864,3.664-16.712,4.8-25.576,2.952c-14.64-3.08-26.744-14.904-30.12-29.44C263.352,322,263.656,314.512,266.04,307.384z
			 M377.208,389.896L106.104,118.792c4.032-4.424,8.264-8.656,12.688-12.688L389.888,377.2
			C385.864,381.632,381.632,385.864,377.208,389.896z M171.68,136.368c14.672,1.712,26.24,13.28,27.944,27.944L171.68,136.368z
			 M341.568,306.256l-76.752-76.752l-3.352-7.264C257.84,215.336,256,207.848,256,200c0-14.384,6.368-27.888,17.48-37.048
			c11.104-9.168,25.752-12.824,40.2-10.008c18.712,3.624,33.736,18.648,37.376,37.376c2.232,11.496,0.504,22.832-5,32.8
			C339.48,235.032,336,249.512,336,264.984v9.848C336,285.624,337.872,296.192,341.568,306.256z M363.312,328H368v-16h-8.704
			c-0.552-3.832-1.376-7.608-2.712-11.256c-3.04-8.288-4.584-17.008-4.584-25.912v-9.848c0-12.776,2.792-24.576,8.064-34.136
			c3.968-7.176,6.408-14.888,7.408-22.848H384v-16h-16.52c-0.192-1.576-0.408-3.16-0.72-4.736
			c-1.912-9.824-6.224-18.84-12.192-26.52l11.656-11.656l-11.312-11.312l-11.656,11.656c-7.688-5.976-16.704-10.296-26.536-12.2
			c-1.576-0.304-3.144-0.456-4.72-0.648V120h-16v16.568c-11.312,1.424-22.056,5.848-31.192,12.936l-11.728-11.728l-11.312,11.312
			l11.664,11.664C244.792,171.872,240,185.608,240,200c0,1.672,0.168,3.328,0.304,4.992l-25.88-25.88
			c0.256-1.032,0.648-2.08,0.84-3.104H224v-16h-8.72c-1.232-7.272-4.08-13.992-8.2-19.768l6.176-6.176l-11.312-11.312l-6.176,6.176
			c-5.776-4.128-12.496-6.976-19.768-8.208V112h-16v8.744c-1.032,0.184-2.072,0.584-3.104,0.84l-25.76-25.76
			C163.528,70.88,204.048,56,248,56c105.864,0,192,86.136,192,192c0,43.952-14.88,84.472-39.816,116.872L363.312,328z"/>
	</g>
</g>
<g>
	<g>
		<rect x="232" width="32" height="16"/>
	</g>
</g>
<g>
	<g>
		<rect x="140.152" y="18.261" transform="matrix(0.9238 -0.3828 0.3828 0.9238 1.8417 61.7769)" width="31.999" height="16"/>
	</g>
</g>
<g>
	<g>
		<rect x="62.296" y="70.296" transform="matrix(0.7071 -0.7071 0.7071 0.7071 -32.4313 78.2958)" width="32" height="16"/>
	</g>
</g>
<g>
	<g>
		<rect x="10.267" y="148.156" transform="matrix(0.3828 -0.9238 0.9238 0.3828 -128.0498 120.6434)" width="31.999" height="16"/>
	</g>
</g>
<g>
	<g>
		<rect y="232" width="16" height="32"/>
	</g>
</g>
<g>
	<g>
		<rect x="18.266" y="323.855" transform="matrix(0.9239 -0.3827 0.3827 0.9239 -128.0606 35.9229)" width="16" height="32.001"/>
	</g>
</g>
<g>
	<g>
		<rect x="70.292" y="401.687" transform="matrix(0.707 -0.7072 0.7072 0.707 -272.4519 177.7479)" width="16" height="32"/>
	</g>
</g>
<g>
	<g>
		<rect x="148.149" y="453.727" transform="matrix(0.3826 -0.9239 0.9239 0.3826 -337.5814 434.2754)" width="16" height="32"/>
	</g>
</g>
<g>
	<g>
		<rect x="232" y="480" width="32" height="16"/>
	</g>
</g>
<g>
	<g>
		<rect x="323.833" y="461.689" transform="matrix(0.9238 -0.3828 0.3828 0.9238 -153.9158 165.869)" width="31.999" height="16"/>
	</g>
</g>
<g>
	<g>
		<rect x="401.677" y="409.68" transform="matrix(0.7071 -0.7071 0.7071 0.7071 -173.0097 417.6776)" width="32" height="16"/>
	</g>
</g>
<g>
	<g>
		<rect x="453.716" y="331.821" transform="matrix(0.3828 -0.9238 0.9238 0.3828 -24.0317 643.6699)" width="31.999" height="16"/>
	</g>
</g>
<g>
	<g>
		<rect x="480" y="232" width="16" height="32"/>
	</g>
</g>
<g>
	<g>
		<rect x="461.748" y="140.165" transform="matrix(0.9239 -0.3827 0.3827 0.9239 -24.0044 191.6557)" width="16" height="32.001"/>
	</g>
</g>
<g>
	<g>
		<rect x="409.682" y="62.318" transform="matrix(0.7071 -0.7071 0.7071 0.7071 66.9574 318.2846)" width="16" height="32"/>
	</g>
</g>
<g>
	<g>
		<rect x="331.846" y="10.258" transform="matrix(0.3827 -0.9239 0.9239 0.3827 185.5299 330.1852)" width="16" height="32.001"/>
	</g>
</g>
<g>
	<g>
		<path d="M183.192,304.648C183.728,301.8,184,298.912,184,296c0-26.472-21.528-48-48-48s-48,21.528-48,48s21.528,48,48,48
			c0,22.056,17.944,40,40,40c22.056,0,40-17.944,40-40C216,324.4,201.832,308.048,183.192,304.648z M176,368
			c-13.232,0-24-10.768-24-24c0-2.096,0.376-4.296,1.176-6.936c0.84-2.752,0.136-5.736-1.84-7.832
			c-1.528-1.616-3.64-2.496-5.816-2.496c-0.632,0-1.272,0.08-1.904,0.224c-2.888,0.712-5.304,1.04-7.616,1.04
			c-17.648,0-32-14.352-32-32s14.352-32,32-32s32,14.352,32,32c0,4.456-0.968,8.848-2.864,13.08
			c-1.176,2.616-0.856,5.672,0.832,7.992s4.464,3.536,7.352,3.24l1.224-0.16c0.48-0.064,0.96-0.152,1.456-0.152
			c13.232,0,24,10.768,24,24S189.232,368,176,368z"/>
	</g>
</g>
<g>
	<g>
		<path d="M400,248c0,8.824-7.176,16-16,16v16c17.648,0,32-14.352,32-32H400z"/>
	</g>
</g>
<g>
	<g>
		<path d="M232,392c0,8.824-7.176,16-16,16v16c17.648,0,32-14.352,32-32H232z"/>
	</g>
</g>
<g>
	<g>
		<path d="M88,208H72c0,17.648,14.352,32,32,32v-16C95.176,224,88,216.824,88,208z"/>
	</g>
</g>
<g>
	<g>
		<path d="M240,80h-16c0,17.648,14.352,32,32,32V96C247.176,96,240,88.824,240,80z"/>
	</g>
</g>
<g>
	<g>
		<circle cx="136" cy="296" r="8"/>
	</g>
</g>
<g>
	<g>
		<circle cx="176" cy="344" r="8"/>
	</g>
</g>
<g>
	<g>
		<rect x="296" y="168" width="16" height="16"/>
	</g>
</g>
<g>
	<g>
		<rect x="320" y="200" width="16" height="16"/>
	</g>
</g>
<g>
	<g>
		<rect x="272" y="208" width="16" height="16"/>
	</g>
</g>
<g>
	<g>
		<rect x="304" y="240" width="16" height="16"/>
	</g>
</g>
<g>
</g>
<g>
</g>
<g>
</g>
<g>
</g>
<g>
</g>
<g>
</g>
<g>
</g>
<g>
</g>
<g>
</g>
<g>
</g>
<g>
</g>
<g>
</g>
<g>
</g>
<g>
</g>
<g>
</g>
</svg>
