<?xml version="1.0" encoding="iso-8859-1"?>
<!-- Generator: Adobe Illustrator 17.1.0, SVG Export Plug-In . SVG Version: 6.00 Build 0)  -->
<!DOCTYPE svg PUBLIC "-//W3C//DTD SVG 1.1//EN" "http://www.w3.org/Graphics/SVG/1.1/DTD/svg11.dtd">
<svg version="1.1" id="Capa_1" xmlns="http://www.w3.org/2000/svg" xmlns:xlink="http://www.w3.org/1999/xlink" x="0px" y="0px"
	 viewBox="0 0 442 442" style="enable-background:new 0 0 442 442;" xml:space="preserve">
<g>
	<path d="M114.137,253.445l15.63,41.042c1.782,4.681,6.753,7.316,11.628,6.178l17.073-4.005v79.276c0,5.522,4.477,10,10,10h103.636
		c5.523,0,10-4.478,10-10V296.66l17.073,4.005c4.879,1.143,9.846-1.496,11.628-6.178l15.63-41.042
		c1.855-4.871-0.343-10.351-5.05-12.589l-66.035-31.409c-4.735-2.251-10.402-0.465-12.99,4.091
		c-0.062,0.109-6.606,10.868-22.075,10.868c-14.878,0-21.492-9.948-22.103-10.922c-2.526-4.678-8.149-6.325-12.962-4.037
		l-66.035,31.409C114.479,243.095,112.282,248.574,114.137,253.445z M186.764,230.86c6.043,6.041,16.898,13.546,33.522,13.546
		c16.624,0,27.479-7.505,33.522-13.546l50.652,24.093l-9.233,24.242l-20.84-4.888c-2.973-0.695-6.101,0.003-8.495,1.899
		c-2.393,1.896-3.789,4.783-3.789,7.837v81.893h-83.636v-81.893c0-3.054-1.396-5.94-3.789-7.837s-5.52-2.595-8.495-1.899
		l-20.84,4.888l-9.233-24.242L186.764,230.86z"/>
	<path d="M417.546,0H24.454c-5.523,0-10,4.478-10,10v113.253c0,5.522,4.477,10,10,10h9.903v19.161h-0.665c-5.523,0-10,4.478-10,10
		v228.784c0,28.013,22.79,50.802,50.802,50.802h291.584c28.012,0,50.802-22.789,50.802-50.802V162.414
		c0-5.265-4.072-9.571-9.238-9.961v-19.2h9.903c5.523,0,10-4.478,10-10V10C427.546,4.478,423.069,0,417.546,0z M407.546,113.253
		h-58.619V98.92c0-5.522-4.477-10-10-10s-10,4.478-10,10v14.333h-58.618V20h58.618v38.92c0,5.522,4.477,10,10,10s10-4.478,10-10V20
		h58.619V113.253z M191.691,113.253V20h58.618v93.253H191.691z M113.073,113.253V20h58.618v93.253H113.073z M34.454,20h58.619
		v93.253H34.454V20z M387.643,152.414H130.125c-5.523,0-10,4.478-10,10s4.477,10,10,10H396.88v218.784
		c0,16.984-13.817,30.802-30.802,30.802H74.494c-16.984,0-30.802-13.817-30.802-30.802V172.414h46.432c5.523,0,10-4.478,10-10
		s-4.477-10-10-10H54.357v-19.161h333.285V152.414z"/>
</g>
<g>
</g>
<g>
</g>
<g>
</g>
<g>
</g>
<g>
</g>
<g>
</g>
<g>
</g>
<g>
</g>
<g>
</g>
<g>
</g>
<g>
</g>
<g>
</g>
<g>
</g>
<g>
</g>
<g>
</g>
</svg>
