<?xml version="1.0" encoding="iso-8859-1"?>
<!-- Generator: Adobe Illustrator 19.0.0, SVG Export Plug-In . SVG Version: 6.00 Build 0)  -->
<svg version="1.1" id="Capa_1" xmlns="http://www.w3.org/2000/svg" xmlns:xlink="http://www.w3.org/1999/xlink" x="0px" y="0px"
	 viewBox="0 0 353.178 353.178" style="enable-background:new 0 0 353.178 353.178;" xml:space="preserve">
<g>
	<g>
		<path d="M352.62,188.489c-1.6-4-6-5.6-9.6-4c-42,18.4-62.8,9.6-84.8,0.4c-22-9.2-44.4-18.8-84.4-0.4c-42,18.4-62.8,9.6-84.8,0.4
			c-22-9.2-44.8-18.8-84.8,0c-3.6,1.6-5.2,6-3.6,9.6c1.6,3.6,6,5.2,9.6,3.6c34-16,52-8.4,72.8,0.4c13.2,5.6,27.6,11.6,46.4,11.6
			c13.6,0,30-3.2,50-12c34-16,52-8.4,72.8,0.4c13.2,5.6,27.6,11.6,46.4,11.6c13.6,0,30-3.2,50-12
			C352.22,196.489,354.22,192.089,352.62,188.489z"/>
	</g>
</g>
<g>
	<g>
		<path d="M352.22,252.089c-1.2-3.6-5.6-5.6-9.2-4c-42,18.4-62.8,9.6-84.8,0.4c-22-9.2-44.4-18.8-84.4-0.4
			c-42,18.4-62.8,9.6-84.8,0.4c-22-9.2-44.8-18.8-84.8,0c-3.6,1.6-5.2,6-3.6,9.6c1.6,3.6,6,5.2,9.6,3.6c34-16,52-8.4,72.8,0.4
			c13.2,5.6,27.6,11.6,46.4,11.6c13.6,0,30-3.2,50-12c34-16,52-8.4,72.8,0.4c13.2,5.6,27.6,11.6,46.4,11.6c13.6,0,30-3.2,50-12
			C352.22,260.089,354.22,255.689,352.22,252.089z"/>
	</g>
</g>
<g>
	<g>
		<path d="M352.22,316.089c-1.2-4-5.6-5.6-9.2-4c-42,18.4-62.8,9.6-84.8,0.4c-22-9.2-44.4-18.8-84.4-0.4c-42,18.4-62.8,9.6-84.8,0.4
			s-44.8-18.8-84.8,0c-3.6,1.6-5.2,6-3.6,9.6c1.6,3.6,6,5.2,9.6,3.6c34-16,52-8.4,72.8,0.4c13.2,5.6,27.6,11.6,46.4,11.6
			c13.6,0,30-3.2,50-12c34-16,52-8.4,72.8,0.4c13.2,5.6,27.6,11.6,46.4,11.6c13.6,0,30-3.2,50-12
			C352.22,324.089,354.22,319.689,352.22,316.089z"/>
	</g>
</g>
<g>
	<g>
		<path d="M106.22,57.689l-40-40c-0.8-0.8-1.6-1.2-2.4-1.6c-1.6-0.8-4-0.8-5.6,0c-0.8,0.4-1.6,0.8-2.4,1.6l-40,40
			c-2.8,2.8-2.8,7.6,0,10.4c1.6,1.6,3.2,2,5.2,2s3.6-0.8,5.2-2l27.6-27.6v80.4c0,4,3.2,7.2,7.2,7.2s7.2-3.2,7.2-7.2v-80.4l27.6,27.6
			c1.6,1.6,3.2,2,5.2,2s3.6-0.8,5.2-2C109.02,65.289,109.02,60.489,106.22,57.689z"/>
	</g>
</g>
<g>
	<g>
		<path d="M221.82,57.689l-40-40c-0.8-0.8-1.6-1.2-2.4-1.6c-1.6-0.8-4-0.8-5.6,0c-0.8,0.4-1.6,0.8-2.4,1.6l-40,40
			c-2.8,2.8-2.8,7.6,0,10.4c1.6,1.6,3.2,2,5.2,2s3.6-0.8,5.2-2l27.6-27.6v80.4c0,4.4,3.2,7.6,7.2,7.6s7.2-3.2,7.2-7.2v-80.8
			l27.6,27.6c1.6,1.6,3.2,2,5.2,2s3.6-0.8,5.2-2C224.62,65.289,224.62,60.489,221.82,57.689z"/>
	</g>
</g>
<g>
	<g>
		<path d="M337.42,57.689l-40-40c-0.8-0.8-1.6-1.2-2.4-1.6c-1.6-0.8-4-0.8-5.6,0c-0.8,0.4-1.6,0.8-2.4,1.6l-40,40
			c-2.8,2.8-2.8,7.6,0,10.4c1.6,1.6,3.2,2,5.2,2s3.6-0.8,5.2-2l27.6-27.6v80.4c0,4.4,3.2,7.6,7.2,7.6s7.2-3.2,7.2-7.2v-80.8
			l27.6,27.6c1.6,1.6,3.2,2,5.2,2s3.6-0.8,5.2-2C340.22,65.289,340.22,60.489,337.42,57.689z"/>
	</g>
</g>
<g>
</g>
<g>
</g>
<g>
</g>
<g>
</g>
<g>
</g>
<g>
</g>
<g>
</g>
<g>
</g>
<g>
</g>
<g>
</g>
<g>
</g>
<g>
</g>
<g>
</g>
<g>
</g>
<g>
</g>
</svg>
