<?xml version="1.0" encoding="UTF-8" standalone="no"?>
<svg
   xmlns:dc="http://purl.org/dc/elements/1.1/"
   xmlns:cc="http://creativecommons.org/ns#"
   xmlns:rdf="http://www.w3.org/1999/02/22-rdf-syntax-ns#"
   xmlns:svg="http://www.w3.org/2000/svg"
   xmlns="http://www.w3.org/2000/svg"
   xmlns:sodipodi="http://sodipodi.sourceforge.net/DTD/sodipodi-0.dtd"
   xmlns:inkscape="http://www.inkscape.org/namespaces/inkscape"
   height="497pt"
   viewBox="0 0 497.456 497"
   width="497pt"
   version="1.1"
   id="svg90"
   sodipodi:docname="sewing-white.svg"
   inkscape:version="0.92.3 (2405546, 2018-03-11)">
  <metadata
     id="metadata96">
    <rdf:RDF>
      <cc:Work
         rdf:about="">
        <dc:format>image/svg+xml</dc:format>
        <dc:type
           rdf:resource="http://purl.org/dc/dcmitype/StillImage" />
        <dc:title></dc:title>
      </cc:Work>
    </rdf:RDF>
  </metadata>
  <defs
     id="defs94" />
  <sodipodi:namedview
     pagecolor="#ffffff"
     bordercolor="#666666"
     borderopacity="1"
     objecttolerance="10"
     gridtolerance="10"
     guidetolerance="10"
     inkscape:pageopacity="0"
     inkscape:pageshadow="2"
     inkscape:window-width="1366"
     inkscape:window-height="705"
     id="namedview92"
     showgrid="false"
     inkscape:zoom="0.71227364"
     inkscape:cx="2.0746316"
     inkscape:cy="337.04893"
     inkscape:window-x="-8"
     inkscape:window-y="-8"
     inkscape:window-maximized="1"
     inkscape:current-layer="svg90" />
  <g
     fill="#f0bc5e"
     id="g86">
    <path
       d="m13.601562 184.226562-4.875 56h88v-56zm0 0"
       id="path78" />
    <path
       d="m400.726562 184.226562v56h88l-4.871093-56zm0 0"
       id="path80" />
    <path
       d="m248.726562 88.226562c44.183594 0 80-35.816406 80-80h-32c0 26.511719-21.488281 48-48 48-26.511718 0-48-21.488281-48-48h-32c0 44.183594 35.816407 80 80 80zm0 0"
       id="path82" />
    <path
       d="m248.726562 308.058594-82-89.453125c-9.023437-9.832031-14-22.617188-14-35.984375v-1.144532c0-29.367187 23.890626-53.257812 53.257813-53.257812 14.222656 0 27.589844 5.539062 37.65625 15.601562l5.085937 5.085938 5.089844-5.085938c10.0625-10.0625 23.429688-15.601562 37.65625-15.601562 29.367188 0 53.253906 23.890625 53.253906 53.257812v1.144532c0 13.367187-4.972656 26.152344-14.007812 35.984375zm0 0"
       id="path84" />
  </g>
  <path
     d="m481.425781 384.234375-13.882812-10.992187c4.351562-28.414063 13.792969-55.957032 28.128906-81.054688l-13.886719-7.933594c-13.808594 24.167969-23.410156 50.453125-28.585937 77.636719l-44.472657-35.207031v-78.457032h88.730469l-14.023437-161.277343c-1.9375-22.265625-16.882813-41.210938-38.082032-48.28125l-115.328124-38.441407h-41.296876v8c0 22.058594-17.941406 40-40 40-22.054687 0-40-17.941406-40-40v-8h-41.292968l-115.328125 38.441407c-21.203125 7.0625-36.144531 26.015625-38.082031 48.28125l-14.023438 161.277343h88.726562v248h320v-24.902343c24.328126-2.769531 37.992188-11.335938 43.195313-15.351563 1.46875.160156 2.949219.246094 4.453125.246094 22.25 0 40.351562-18.101562 40.351562-40.351562 0-12.390626-5.574218-23.925782-15.300781-31.632813zm-88.699219 95.992187h-288v-360h-16v112h-71.269531l1.390625-16h53.878906v-16h-52.488281l9.730469-111.894531c1.382812-15.894531 12.054688-29.433593 27.199219-34.480469l112.855469-37.625h23.273437c3.894531 27.105469 27.261719 48 55.429687 48 28.167969 0 51.539063-20.894531 55.433594-48h23.273438l112.855468 37.625c15.144532 5.046876 25.824219 18.585938 27.199219 34.480469l9.726563 111.894531h-52.488282v16h53.882813l1.390625 16h-71.273438v-112h-16v193.792969l-86.613281-68.566406-19.386719 21.144531 106 133.886719v55.742187c-19.886718 0-37.03125-7.550781-56.886718-16.300781-25.214844-11.105469-53.792969-23.699219-95.113282-23.699219v16c37.953126 0 63.730469 11.363282 88.664063 22.335938 20.617187 9.082031 40.082031 17.664062 63.335937 17.664062zm16-25.023437v-34.503906l16.007813 20.226562c2.386719 3.007813 5.160156 5.558594 8.1875 7.734375-5.546875 2.519532-13.507813 5.144532-24.195313 6.542969zm47.648438-14.976563c-7.488281 0-14.445312-3.367187-19.085938-9.230468l-129.984374-164.183594 143.160156 113.335938c-1.089844 9.472656-1.738282 19.007812-1.738282 28.582031v8.25l16-.746094v-7.503906c0-5.605469.25-11.199219.648438-16.78125l6.121094 4.839843c5.863281 4.648438 9.230468 11.605469 9.230468 19.085938 0 13.425781-10.925781 24.351562-24.351562 24.351562zm0 0"
     id="path88"
     style="fill:#e6e6e6" />
</svg>
