<?xml version="1.0" encoding="UTF-8" standalone="no"?>
<!-- Generator: Adobe Illustrator 18.1.1, SVG Export Plug-In . SVG Version: 6.00 Build 0)  -->

<svg
   xmlns:dc="http://purl.org/dc/elements/1.1/"
   xmlns:cc="http://creativecommons.org/ns#"
   xmlns:rdf="http://www.w3.org/1999/02/22-rdf-syntax-ns#"
   xmlns:svg="http://www.w3.org/2000/svg"
   xmlns="http://www.w3.org/2000/svg"
   xmlns:sodipodi="http://sodipodi.sourceforge.net/DTD/sodipodi-0.dtd"
   xmlns:inkscape="http://www.inkscape.org/namespaces/inkscape"
   version="1.1"
   id="Capa_1"
   x="0px"
   y="0px"
   viewBox="0 0 459.529 459.529"
   style="enable-background:new 0 0 459.529 459.529;"
   xml:space="preserve"
   width="512px"
   height="512px"
   sodipodi:docname="shopping-cart.svg"
   inkscape:version="0.92.3 (2405546, 2018-03-11)"><metadata
   id="metadata3805"><rdf:RDF><cc:Work
       rdf:about=""><dc:format>image/svg+xml</dc:format><dc:type
         rdf:resource="http://purl.org/dc/dcmitype/StillImage" /></cc:Work></rdf:RDF></metadata><defs
   id="defs3803" /><sodipodi:namedview
   pagecolor="#ffffff"
   bordercolor="#666666"
   borderopacity="1"
   objecttolerance="10"
   gridtolerance="10"
   guidetolerance="10"
   inkscape:pageopacity="0"
   inkscape:pageshadow="2"
   inkscape:window-width="1366"
   inkscape:window-height="705"
   id="namedview3801"
   showgrid="false"
   inkscape:zoom="1.046875"
   inkscape:cx="100.77612"
   inkscape:cy="256"
   inkscape:window-x="-8"
   inkscape:window-y="-8"
   inkscape:window-maximized="1"
   inkscape:current-layer="Capa_1" />
<g
   id="g3768">
	<g
   id="g3766">
		<path
   d="M17,55.231h48.733l69.417,251.033c1.983,7.367,8.783,12.467,16.433,12.467h213.35c6.8,0,12.75-3.967,15.583-10.2    l77.633-178.5c2.267-5.383,1.7-11.333-1.417-16.15c-3.117-4.817-8.5-7.65-14.167-7.65H206.833c-9.35,0-17,7.65-17,17    s7.65,17,17,17H416.5l-62.9,144.5H164.333L94.917,33.698c-1.983-7.367-8.783-12.467-16.433-12.467H17c-9.35,0-17,7.65-17,17    S7.65,55.231,17,55.231z"
   fill="#3d3d3d"
   id="path3760" />
		<path
   d="M135.433,438.298c21.25,0,38.533-17.283,38.533-38.533s-17.283-38.533-38.533-38.533S96.9,378.514,96.9,399.764    S114.183,438.298,135.433,438.298z"
   fill="#3d3d3d"
   id="path3762" />
		<path
   d="M376.267,438.298c0.85,0,1.983,0,2.833,0c10.2-0.85,19.55-5.383,26.35-13.317c6.8-7.65,9.917-17.567,9.35-28.05    c-1.417-20.967-19.833-37.117-41.083-35.7c-21.25,1.417-37.117,20.117-35.7,41.083    C339.433,422.431,356.15,438.298,376.267,438.298z"
   fill="#3d3d3d"
   id="path3764" />
	</g>
</g>
<g
   id="g3770">
</g>
<g
   id="g3772">
</g>
<g
   id="g3774">
</g>
<g
   id="g3776">
</g>
<g
   id="g3778">
</g>
<g
   id="g3780">
</g>
<g
   id="g3782">
</g>
<g
   id="g3784">
</g>
<g
   id="g3786">
</g>
<g
   id="g3788">
</g>
<g
   id="g3790">
</g>
<g
   id="g3792">
</g>
<g
   id="g3794">
</g>
<g
   id="g3796">
</g>
<g
   id="g3798">
</g>
<path
   style="fill:#ececec;stroke-width:0.95522386"
   d="m 162.42215,353.41166 c -1.66244,-0.53483 -4.62383,-2.61219 -6.58084,-4.61636 -4.2658,-4.36858 0.60471,12.22442 -46.31469,-157.78609 L 73.743284,61.349774 45.564179,61.332247 C 29.169085,61.322049 15.899512,60.902137 13.83265,60.328114 1.9517689,57.028469 -3.3904755,41.417389 4.1272028,31.966905 c 1.5736326,-1.978216 4.7541804,-4.56392 7.0678832,-5.746009 4.152976,-2.121789 4.689835,-2.149254 42.010884,-2.149254 37.321049,0 37.857909,0.02746 42.01088,2.149254 8.60903,4.398419 5.88214,-4.045538 48.43139,149.969934 l 38.99057,141.13411 105.99213,-0.23859 105.99213,-0.23859 34.60028,-79.28358 c 19.03015,-43.60597 34.6292,-79.8209 34.66457,-80.47761 0.0511,-0.94908 -24.08715,-1.19512 -117.66702,-1.19936 -79.93922,-0.004 -118.90112,-0.33016 -121.37546,-1.01725 -5.10649,-1.418 -10.52537,-7.14315 -12.10664,-12.79089 -2.30734,-8.24101 1.69961,-17.40664 9.24907,-21.15658 3.51495,-1.74594 8.18939,-1.80607 140.3896,-1.80607 h 136.75357 l 4.05688,2.86567 c 5.46194,3.85818 8.07895,9.05595 7.93554,15.76119 -0.10089,4.71772 -4.61574,15.58417 -44.25225,106.50747 -33.00003,75.6997 -44.90492,102.06597 -47.17122,104.47211 -5.88085,6.24372 2.76445,5.86575 -131.71707,5.75873 -80.25059,-0.0639 -123.58124,-0.43309 -125.56077,-1.06993 z"
   id="path4620"
   inkscape:connector-curvature="0"
   transform="scale(0.89751758)" /><path
   style="fill:#ececec;stroke-width:0.95522386"
   d="m 144.50633,487.21533 c -20.15247,-2.8053 -35.89737,-21.17859 -35.89737,-41.88996 0,-16.58586 9.1843,-30.85429 24.76969,-38.48137 5.96334,-2.91831 6.82327,-3.07087 17.3097,-3.07087 10.80304,0 11.18497,0.0743 18.19941,3.54104 17.24656,8.52371 27.10803,26.90089 23.87528,44.49239 -4.37412,23.80248 -24.66698,38.69254 -48.25671,35.40877 z"
   id="path4622"
   inkscape:connector-curvature="0"
   transform="scale(0.89751758)" /><path
   style="fill:#999999;stroke-width:0.95522386"
   d="m 412.92424,487.28771 c -16.84364,-2.5603 -31.40951,-16.4771 -35.05971,-33.4974 -3.93344,-18.34099 6.42229,-38.80983 23.73659,-46.91703 5.42149,-2.53855 7.88065,-3.09166 15.16833,-3.41165 13.97704,-0.61372 23.61951,3.05346 32.94854,12.5308 18.36402,18.65597 15.04668,49.94875 -6.84474,64.56728 -9.07109,6.05744 -19.27702,8.35019 -29.94901,6.728 z"
   id="path4624"
   inkscape:connector-curvature="0"
   transform="scale(0.89751758)" /><path
   style="fill:#999999;stroke-width:0.95522386"
   d="m 161.62388,352.25803 c -5.161,-2.36527 -7.8321,-5.87846 -10.36268,-13.62962 -3.47896,-10.65606 -4.649,-14.83999 -41.2181,-147.39259 C 91.852892,125.30149 76.339566,69.162562 75.569043,66.482642 L 74.168094,61.61006 44.381306,60.918837 C 12.237402,60.172916 10.870832,59.955277 6.0356667,54.811967 3.4059658,52.014675 0.35677364,43.456622 1.1107967,40.989518 1.3052317,40.353343 1.715017,38.683875 2.0214308,37.279591 2.8046113,33.690301 6.9012149,29.129774 11.535084,26.688555 15.383449,24.661157 16.347891,24.612476 53.20597,24.585196 l 37.731343,-0.02793 4.286501,2.396062 c 8.432676,4.713696 5.328776,-5.379268 66.385266,215.864582 9.78662,35.46269 18.41371,66.62687 19.17134,69.25373 l 1.37749,4.77612 h 106.49505 106.49506 l 3.72974,-8.59701 c 2.05137,-4.72836 14.68123,-33.74329 28.06638,-64.47762 37.06791,-85.11353 37.45995,-86.05575 36.14433,-86.86885 -0.63803,-0.39432 -54.32858,-1.02184 -119.31233,-1.39447 -133.57642,-0.76597 -122.0877,0.009 -127.9433,-8.62758 -3.90384,-5.75769 -4.2452,-12.34284 -0.93951,-18.12376 3.00836,-5.26097 6.50916,-7.52114 12.88289,-8.31742 3.01919,-0.37719 65.28167,-0.72209 138.36106,-0.76642 l 132.8716,-0.0806 4.03731,2.92461 c 4.44982,3.22344 7.6578,9.0907 7.69104,14.06663 0.0346,5.18394 -6.91285,21.93902 -49.2179,118.6977 -27.69313,63.33881 -38.92777,88.17146 -41.75994,92.30475 -1.15528,1.68602 -3.18302,3.62644 -4.50607,4.31203 -3.67455,1.90409 -249.49878,2.25135 -253.62944,0.35828 z"
   id="path4626"
   inkscape:connector-curvature="0"
   transform="scale(0.89751758)" /><path
   style="fill:#999999;stroke-width:0.95522386"
   d="m 142.08506,486.31177 c -11.32452,-2.21989 -23.56978,-12.04422 -28.70091,-23.02665 -9.85426,-21.09157 -1.32186,-45.06298 19.85905,-55.79313 5.15142,-2.60968 6.12044,-2.76363 17.39561,-2.76363 11.19054,0 12.28804,0.17075 17.47829,2.71936 8.51141,4.17942 16.25419,11.92592 20.48941,20.49925 3.45742,6.99886 3.58453,7.61348 3.58453,17.33221 0,9.66564 -0.1453,10.38037 -3.56756,17.5476 -8.6578,18.13201 -26.89561,27.33548 -46.53842,23.48499 z"
   id="path4628"
   inkscape:connector-curvature="0"
   transform="scale(0.89751758)" /><path
   style="fill:#f9f9f9;stroke-width:0.95522386"
   d="m 407.36664,485.56228 c -14.84798,-4.9144 -26.66074,-18.28092 -29.34668,-33.20674 -0.45945,-2.55316 -1.13591,-5.60927 -1.50325,-6.79136 -0.37862,-1.21838 -0.26354,-2.14925 0.26569,-2.14925 0.51347,0 1.18869,-2.15401 1.50049,-4.78668 1.38324,-11.67929 11.6421,-25.48765 23.10218,-31.09539 5.05918,-2.47559 6.94408,-2.84264 16.07193,-3.12973 7.80992,-0.24564 11.54308,0.0681 15.25407,1.28189 10.96199,3.58548 21.37804,13.4535 25.70947,24.35677 2.92,7.35038 2.99411,23.08277 0.14215,30.17941 -4.39136,10.9272 -13.81325,20.4129 -24.22239,24.38643 -7.5604,2.88606 -19.82661,3.32019 -26.97366,0.95465 z"
   id="path4630"
   inkscape:connector-curvature="0"
   transform="scale(0.89751758)" /><path
   style="fill:#f9f9f9;stroke-width:0.95522386"
   d="m 163.06923,351.98948 c -3.79453,-0.74792 -7.17735,-3.68267 -9.06173,-7.86149 -0.97719,-2.167 -2.42176,-3.88369 -3.27496,-3.89187 -1.33994,-0.0128 -1.35139,-0.13852 -0.0937,-1.02794 1.08402,-0.76664 1.14071,-1.13175 0.23286,-1.4998 -0.65999,-0.26756 -0.97354,-0.85287 -0.69677,-1.30069 0.6075,-0.98297 -5.25923,-21.35052 -6.26638,-21.75499 -0.38978,-0.15653 -0.48926,-1.12369 -0.22107,-2.14925 0.26819,-1.02556 0.0211,-1.86464 -0.54903,-1.86464 -0.57445,0 -0.7647,-0.70872 -0.4267,-1.58953 0.41944,-1.09304 0.24892,-1.36641 -0.54587,-0.8752 -0.8491,0.52477 -0.98197,0.0216 -0.50064,-1.89621 0.50705,-2.02026 0.371,-2.43493 -0.60166,-1.8338 -0.92072,0.56905 -1.08594,0.33138 -0.61777,-0.88865 0.82059,-2.13841 -0.24063,-6.44811 -1.40984,-5.7255 -0.52593,0.32505 -0.62288,-0.51964 -0.2364,-2.05952 0.50705,-2.02025 0.371,-2.43492 -0.60166,-1.83379 -0.92072,0.56905 -1.08594,0.33138 -0.61777,-0.88865 0.86796,-2.26186 -0.26473,-6.43322 -1.53388,-5.64883 -0.6453,0.3988 -0.78261,0.0204 -0.37657,-1.03774 0.82059,-2.13841 -0.24063,-6.44811 -1.40984,-5.7255 -0.52593,0.32505 -0.62288,-0.51964 -0.2364,-2.05952 0.50705,-2.02025 0.371,-2.43492 -0.60166,-1.83379 -0.92072,0.56905 -1.08594,0.33138 -0.61777,-0.88865 0.86796,-2.26186 -0.26473,-6.43322 -1.53388,-5.64883 -0.6453,0.3988 -0.78261,0.0204 -0.37657,-1.03774 0.82059,-2.13841 -0.24063,-6.44811 -1.40984,-5.7255 -0.52593,0.32505 -0.62288,-0.51964 -0.2364,-2.05952 0.50705,-2.02025 0.371,-2.43492 -0.60166,-1.83379 -0.92072,0.56905 -1.08594,0.33138 -0.61777,-0.88865 0.82059,-2.13841 -0.24063,-6.44812 -1.40984,-5.7255 -0.52593,0.32504 -0.62288,-0.51964 -0.2364,-2.05952 0.50705,-2.02025 0.371,-2.43492 -0.60166,-1.83379 -0.92072,0.56904 -1.08594,0.33138 -0.61777,-0.88866 0.86796,-2.26185 -0.26473,-6.43321 -1.53388,-5.64883 -0.6453,0.39881 -0.78261,0.0204 -0.37657,-1.03773 0.82059,-2.13841 -0.24063,-6.44812 -1.40984,-5.7255 -0.52025,0.32154 -0.63361,-0.47691 -0.27215,-1.91705 0.40111,-1.5983 0.22642,-2.4681 -0.49574,-2.4681 -0.61333,0 -0.8617,-0.41008 -0.55193,-0.91129 0.83153,-1.34545 -0.50588,-5.85377 -1.54588,-5.21102 -0.52025,0.32154 -0.63361,-0.47692 -0.27215,-1.91705 0.37891,-1.50969 0.21995,-2.4681 -0.40936,-2.4681 -0.56711,0 -0.75506,-0.71331 -0.41883,-1.58953 0.41944,-1.09303 0.24892,-1.36641 -0.54587,-0.87519 -0.84175,0.52022 -0.98751,0.0437 -0.53639,-1.75375 0.40114,-1.5983 0.22645,-2.4681 -0.49571,-2.4681 -0.61333,0 -0.8617,-0.41008 -0.55193,-0.91129 0.83153,-1.34545 -0.50588,-5.85377 -1.54588,-5.21102 -0.52025,0.32154 -0.63361,-0.47692 -0.27215,-1.91705 0.3407,-1.35746 0.25046,-2.46908 -0.20052,-2.47028 -0.45099,-9.5e-4 -0.87022,-1.37914 -0.93162,-3.06209 -0.0614,-1.68295 -0.5531,-3.20706 -1.09264,-3.38691 -0.53953,-0.17984 -0.76154,-1.16608 -0.49335,-2.19164 0.26819,-1.02555 0.11509,-1.86549 -0.34021,-1.86654 -0.45531,-9.6e-4 -0.92618,-1.39502 -1.04638,-3.09773 -0.12022,-1.7027 -0.66021,-3.24304 -1.19999,-3.42296 -0.53978,-0.17994 -0.74391,-0.71145 -0.45363,-1.18114 0.53281,-0.86211 -1.40898,-8.60559 -2.37984,-9.4903 -0.28825,-0.26269 -0.61918,-1.76304 -0.73538,-3.33411 -0.11621,-1.57107 -0.60788,-2.98869 -1.09263,-3.15028 -0.48475,-0.16158 -0.66192,-1.13287 -0.39373,-2.15843 0.26819,-1.02556 0.11509,-1.86549 -0.34021,-1.86654 -0.45531,-9.6e-4 -0.92618,-1.39502 -1.04639,-3.09773 -0.12021,-1.7027 -0.6602,-3.24304 -1.19998,-3.42297 -0.53978,-0.17993 -0.75731,-0.68976 -0.48339,-1.13298 0.56634,-0.91635 -1.562552,-9.53745 -2.355885,-9.54035 -0.285067,-9.6e-4 -0.616654,-1.39502 -0.73686,-3.09773 -0.120215,-1.7027 -0.611897,-3.22695 -1.092632,-3.38718 -0.480736,-0.16025 -0.654634,-1.13045 -0.386446,-2.15601 0.268189,-1.02556 0.115095,-1.8655 -0.340212,-1.86655 -0.455304,-9.5e-4 -0.926178,-1.39502 -1.046385,-3.09772 -0.120208,-1.70271 -0.660199,-3.24304 -1.199982,-3.42297 -0.539782,-0.17994 -0.757307,-0.68977 -0.48339,-1.13298 0.566334,-0.91635 -1.562554,-9.53745 -2.355889,-9.54036 -0.285064,-9.5e-4 -0.616651,-1.39502 -0.736858,-3.09772 -0.120209,-1.70271 -0.611889,-3.22694 -1.092626,-3.38719 -0.480736,-0.16024 -0.654638,-1.13045 -0.38645,-2.156 0.26819,-1.02556 0.115095,-1.8655 -0.34021,-1.86655 -0.455305,-0.001 -0.926179,-1.39502 -1.046386,-3.09773 -0.120208,-1.7027 -0.660199,-3.24304 -1.199982,-3.42297 -0.539782,-0.17992 -0.757307,-0.68976 -0.48339,-1.13297 0.566334,-0.91635 -1.562554,-9.537451 -2.355889,-9.540357 -0.285064,-0.0011 -0.616651,-1.395022 -0.736859,-3.097729 -0.120208,-1.702706 -0.611888,-3.22694 -1.092625,-3.387185 -0.480736,-0.160246 -0.654639,-1.130447 -0.38645,-2.156003 0.26819,-1.025556 0.115095,-1.865501 -0.340211,-1.866546 -0.455304,-10e-4 -0.923872,-1.365634 -1.041261,-3.032423 -0.11739,-1.666789 -0.54724,-3.277875 -0.955224,-3.580191 -0.407984,-0.302317 -0.756291,-0.979517 -0.774015,-1.50489 -0.103814,-3.077093 -1.696491,-9.074627 -2.409816,-9.074627 -0.462706,0 -0.595249,-0.641153 -0.294542,-1.424785 0.300708,-0.78363 -0.03517,-1.638931 -0.746397,-1.900666 C 73.369972,61.559082 59.816966,60.944905 43.963406,60.455978 9.5667859,59.395181 8.3126647,59.089326 4.1558771,50.747741 1.3430122,45.103056 0.97888296,40.837559 2.9144305,36.205142 c 1.6409514,-3.927349 7.5836905,-9.17999 11.2056245,-9.904377 1.533075,-0.306615 2.787561,-0.826138 2.787749,-1.154496 1.87e-4,-0.328359 16.728763,-0.51742 37.174614,-0.420136 l 37.174274,0.176879 3.88528,2.452669 c 4.3767,2.762889 7.223148,7.68411 10.669988,18.447304 1.48969,4.651738 2.70489,6.930175 3.70143,6.940001 1.17347,0.01157 1.2181,0.182956 0.21346,0.819841 -1.02259,0.648276 -0.67003,2.83299 1.80892,11.209254 1.6935,5.722221 3.33969,10.618964 3.65822,10.88165 0.31853,0.262687 0.6699,1.731468 0.78081,3.263958 0.11092,1.53249 0.54077,3.036967 0.95523,3.343284 0.41446,0.306315 0.84431,1.810793 0.95522,3.343283 0.11092,1.53249 0.54077,3.036968 0.95522,3.343284 0.41446,0.306316 0.84863,1.84236 0.96484,3.413432 0.1162,1.571072 0.65619,3.0048 1.19998,3.186064 0.54379,0.181263 0.75795,0.702937 0.47592,1.159278 -0.79535,1.28689 0.59335,5.749276 1.59629,5.129436 0.52026,-0.32154 0.63361,0.47692 0.27215,1.91705 -0.40114,1.5983 -0.22645,2.4681 0.49571,2.4681 0.61333,0 0.86171,0.41008 0.55194,0.91129 -0.89312,1.44509 0.53493,5.83581 1.66991,5.13436 0.6453,-0.39882 0.78261,-0.0204 0.37657,1.03773 -0.82059,2.13842 0.24063,6.44812 1.40984,5.7255 0.52025,-0.32154 0.63361,0.47691 0.27215,1.91705 -0.35594,1.41821 -0.2142,2.4681 0.3332,2.4681 0.52395,0 0.93269,0.53731 0.90829,1.19403 -0.13257,3.56949 0.36115,5.54068 1.25013,4.99126 0.64423,-0.39816 0.77574,0.25366 0.37406,1.85407 -0.37891,1.50969 -0.21995,2.4681 0.40935,2.4681 0.56711,0 0.75506,0.71331 0.41883,1.58953 -0.41943,1.09303 -0.24892,1.36641 0.54588,0.87519 0.8491,-0.52477 0.98196,-0.0215 0.50063,1.89622 -0.50705,2.02025 -0.371,2.43492 0.60166,1.83379 0.92072,-0.56905 1.08594,-0.33138 0.61777,0.88865 -0.82059,2.13842 0.24063,6.44812 1.40984,5.7255 0.52593,-0.32504 0.62288,0.51964 0.2364,2.05952 -0.4923,1.96148 -0.35762,2.42665 0.54166,1.87086 0.88658,-0.54793 1.01999,-0.18239 0.51459,1.40999 -0.47698,1.50284 -0.35254,1.9459 0.41356,1.47242 0.77572,-0.47942 0.90445,0.0853 0.44064,1.9333 -0.50705,2.02025 -0.371,2.43492 0.60166,1.83379 0.92072,-0.56905 1.08594,-0.33138 0.61777,0.88865 -0.82059,2.13842 0.24063,6.44812 1.40984,5.7255 0.52593,-0.32504 0.62288,0.51964 0.2364,2.05952 -0.4923,1.96148 -0.35762,2.42665 0.54166,1.87086 0.88658,-0.54793 1.01999,-0.18239 0.51459,1.40999 -0.47698,1.50284 -0.35254,1.9459 0.41356,1.47242 0.77572,-0.47942 0.90445,0.0853 0.44064,1.9333 -0.47482,1.89185 -0.34334,2.41782 0.47761,1.91045 0.82094,-0.50737 0.95244,0.0186 0.47761,1.91044 -0.4923,1.96148 -0.35761,2.42665 0.54166,1.87087 0.88658,-0.54794 1.01999,-0.18239 0.51459,1.40998 -0.47698,1.50284 -0.35253,1.9459 0.41356,1.47242 0.77572,-0.47941 0.90445,0.0853 0.44064,1.9333 -0.50705,2.02025 -0.371,2.43492 0.60166,1.83379 0.92072,-0.56904 1.08594,-0.33137 0.61777,0.88866 -0.82059,2.13841 0.24063,6.44811 1.40984,5.72549 0.52593,-0.32504 0.62289,0.51965 0.2364,2.05952 -0.4923,1.96148 -0.35761,2.42665 0.54166,1.87087 0.88658,-0.54794 1.01999,-0.18239 0.51459,1.40998 -0.47698,1.50284 -0.35253,1.9459 0.41356,1.47242 0.77572,-0.47941 0.90445,0.0853 0.44064,1.9333 -0.50705,2.02025 -0.371,2.43492 0.60166,1.83379 0.92072,-0.56904 1.08594,-0.33137 0.61777,0.88866 -0.82059,2.13841 0.24063,6.44811 1.40984,5.72549 0.52593,-0.32504 0.62288,0.51965 0.2364,2.05952 -0.4923,1.96148 -0.35762,2.42665 0.54166,1.87087 0.88658,-0.54794 1.01999,-0.18239 0.51459,1.40998 -0.47698,1.50284 -0.35254,1.9459 0.41356,1.47242 0.77572,-0.47941 0.90445,0.0853 0.44064,1.9333 -0.47482,1.89185 -0.34334,2.41783 0.47761,1.91045 0.82094,-0.50737 0.95244,0.0186 0.47761,1.91045 -0.4923,1.96147 -0.35761,2.42665 0.54166,1.87086 0.88658,-0.54794 1.01999,-0.18239 0.51459,1.40999 -0.47698,1.50283 -0.35253,1.94589 0.41357,1.47242 0.77571,-0.47942 0.90444,0.0853 0.44063,1.93329 -0.50705,2.02025 -0.371,2.43493 0.60166,1.83379 0.92072,-0.56904 1.08594,-0.33137 0.61777,0.88866 -0.82059,2.13841 0.24063,6.44811 1.40984,5.7255 0.52026,-0.32154 0.63361,0.47691 0.27216,1.91704 -0.37891,1.5097 -0.21995,2.4681 0.40935,2.4681 0.56711,0 0.75506,0.71332 0.41883,1.58953 -0.41943,1.09304 -0.24892,1.36641 0.54588,0.8752 0.8491,-0.52477 0.98196,-0.0216 0.50063,1.89621 -0.47482,1.89185 -0.34334,2.41783 0.47761,1.91045 0.81373,-0.5029 0.95834,-0.005 0.51337,1.76798 -0.37891,1.50969 -0.21995,2.4681 0.40935,2.4681 0.56712,0 0.75507,0.71331 0.41884,1.58953 -0.41944,1.09303 -0.24893,1.36641 0.54587,0.87519 0.8491,-0.52477 0.98196,-0.0216 0.50063,1.89622 -0.46296,1.84458 -0.33447,2.41235 0.4379,1.93499 0.68029,-0.42044 1.03649,-0.0233 0.94318,1.05156 -0.3195,3.68082 0.18616,6.11776 1.14629,5.52437 0.64423,-0.39816 0.77574,0.25366 0.37406,1.85407 -0.3407,1.35746 -0.25046,2.46895 0.20052,2.47 0.45099,9.5e-4 0.91832,1.39501 1.03853,3.09772 0.12021,1.70271 0.61189,3.22695 1.09263,3.38719 0.48074,0.16024 0.65463,1.13045 0.38645,2.156 -0.26819,1.02556 -0.0211,1.86465 0.54903,1.86465 0.57444,0 0.76469,0.70872 0.4267,1.58953 -0.41944,1.09303 -0.24892,1.36641 0.54587,0.87519 0.84174,-0.52022 0.9875,-0.0437 0.53639,1.75375 -0.35595,1.41821 -0.21421,2.4681 0.33319,2.4681 0.52395,0 0.93269,0.53731 0.90829,1.19402 -0.13256,3.5695 0.36115,5.54069 1.25013,4.99127 0.64423,-0.39816 0.77574,0.25366 0.37406,1.85407 -0.3407,1.35746 -0.25046,2.46895 0.20052,2.47 0.45099,9.5e-4 0.91602,1.36563 1.03341,3.03242 0.11739,1.66678 0.54724,3.27787 0.95522,3.58019 0.40799,0.30232 0.78478,1.08698 0.83731,1.7437 0.0525,0.65671 0.16,2.0791 0.23881,3.16085 0.0798,1.09541 0.58346,1.69478 1.13679,1.3528 0.64423,-0.39816 0.77574,0.25366 0.37406,1.85407 -0.37891,1.50969 -0.21995,2.4681 0.40935,2.4681 0.56712,0 0.75507,0.71331 0.41884,1.58953 -0.41014,1.06879 -0.24384,1.36327 0.50758,0.89885 0.61466,-0.37988 1.11756,-0.23547 1.11756,0.32091 0,0.70591 32.0336,1.0116 106.00532,1.0116 h 106.00532 l 1.4506,-2.80516 c 0.79783,-1.54283 1.16568,-3.54769 0.81743,-4.45521 -0.38877,-1.01311 -0.25572,-1.41676 0.34469,-1.04568 1.30855,0.80873 3.27761,-3.66914 2.5021,-5.69008 -0.36756,-0.95785 -0.22865,-1.3625 0.34584,-1.00744 1.31108,0.81028 4.24382,-5.58621 3.4772,-7.58401 -0.37526,-0.9779 -0.23384,-1.36996 0.36143,-1.00205 1.30855,0.80873 3.27761,-3.66914 2.5021,-5.69008 -0.37353,-0.9734 -0.23103,-1.36397 0.36357,-0.99649 1.20543,0.745 3.43458,-3.86244 2.55627,-5.28357 -0.34962,-0.56571 0.005,-1.50066 0.78706,-2.07767 1.98433,-1.46323 3.84924,-5.19999 3.15544,-6.3226 -0.318,-0.51451 -0.19195,-0.93548 0.28011,-0.93548 1.208,0 3.22281,-4.71999 2.5083,-5.87609 -0.32523,-0.52624 0.31408,-1.80032 1.4207,-2.83129 1.77936,-1.65772 2.48251,-3.59656 2.12516,-5.85978 -0.0622,-0.39403 0.24774,-0.71642 0.68877,-0.71642 1.12404,0 3.1598,-4.73074 2.49716,-5.80293 -0.30037,-0.486 -0.14306,-0.88364 0.34958,-0.88364 0.86181,0 2.68065,-3.73608 3.24415,-6.66382 0.14927,-0.77556 0.80871,-1.98835 1.46543,-2.6951 1.07779,-1.1599 1.61094,-3.28422 1.30715,-5.20824 -0.0622,-0.39403 0.24773,-0.71642 0.68877,-0.71642 1.16596,0 3.14796,-4.7499 2.45194,-5.87609 -0.32524,-0.52624 0.31407,-1.80032 1.4207,-2.83129 1.10662,-1.03098 2.01204,-2.50254 2.01204,-3.27013 0,-2.12591 0.23297,-2.72028 1.60341,-4.09072 1.13454,-1.13454 1.68645,-3.21537 1.37538,-5.1855 -0.0622,-0.39403 0.24773,-0.71642 0.68877,-0.71642 1.30695,0 3.01849,-4.62123 2.35342,-6.35434 -0.37353,-0.9734 -0.23103,-1.36397 0.36357,-0.99649 1.16958,0.72283 3.44729,-3.84188 2.60062,-5.21183 -0.32524,-0.52624 0.31407,-1.80032 1.4207,-2.83129 1.90609,-1.7758 2.46235,-3.51185 2.06133,-6.43325 -0.0974,-0.70944 0.26893,-1.01425 0.81404,-0.67735 1.03354,0.63876 2.59484,-3.75253 2.13653,-6.00922 -0.14409,-0.70944 0.18403,-1.01424 0.72914,-0.67735 1.03354,0.63876 2.59484,-3.75253 2.13653,-6.00921 -0.14409,-0.70945 0.15159,-1.0343 0.65705,-0.72191 1.07343,0.66342 2.33256,-2.05148 1.54355,-3.32814 -0.29541,-0.47796 -0.0102,-0.86902 0.63371,-0.86902 0.64395,0 0.9047,-0.2661 0.57948,-0.59133 -0.32524,-0.32523 0.0577,-1.24036 0.85095,-2.03362 0.79326,-0.79325 1.21612,-2.03164 0.93972,-2.75195 -0.27641,-0.72032 -0.0609,-1.30967 0.47905,-1.30967 0.53989,0 0.71595,-0.42985 0.39126,-0.95522 -0.3247,-0.52538 -0.18743,-0.95523 0.30504,-0.95523 0.49247,0 1.31858,-1.66715 1.83578,-3.70478 l 0.94037,-3.70477 -4.88387,-0.55655 c -2.68614,-0.30609 -47.43912,-0.82211 -99.45106,-1.14671 -106.56671,-0.66509 -134.35101,-1.38635 -138.62931,-3.59873 -2.55924,-1.32345 -7.04233,-8.34814 -7.04233,-11.03487 0,-0.59918 -0.32239,-1.08941 -0.71642,-1.08941 -0.39403,0 -0.71641,-1.07463 -0.71641,-2.38806 0,-1.31343 0.26865,-2.38806 0.59701,-2.38806 0.32836,0 0.84292,-1.22953 1.14348,-2.7323 0.67754,-3.38774 4.90907,-8.5342 8.20466,-9.97867 1.76952,-0.7756 41.18437,-1.37092 138.59216,-2.09331 l 136.1194,-1.00948 3.50481,2.13795 c 1.92764,1.17587 4.72167,3.7668 6.20895,5.75763 1.48728,1.99082 2.93174,3.73136 3.20991,3.86786 0.27817,0.1365 0.41652,2.38742 0.30746,5.00203 -0.13651,3.27266 -2.07983,9.44544 -6.23709,19.81152 -3.32135,8.28172 -5.93199,15.83488 -5.80144,16.7848 0.13056,0.94992 -0.12897,1.50071 -0.57674,1.22398 -1.18559,-0.73274 -3.06023,3.91008 -2.33834,5.79129 0.37353,0.9734 0.23103,1.36397 -0.36356,0.99649 -1.13259,-0.69998 -3.4603,3.82083 -2.64584,5.13866 0.30037,0.486 0.1599,0.88364 -0.31215,0.88364 -1.16586,0 -3.23451,4.70106 -2.55352,5.80293 0.30037,0.486 0.1599,0.88364 -0.31215,0.88364 -1.16586,0 -3.23451,4.70106 -2.55352,5.80293 0.30037,0.486 0.1599,0.88364 -0.31215,0.88364 -1.16586,0 -3.23451,4.70105 -2.55353,5.80292 0.30037,0.486 0.17052,0.88364 -0.28855,0.88364 -1.16748,0 -4.2061,6.6232 -3.53603,7.7074 0.3024,0.48929 0.16359,0.88962 -0.30846,0.88962 -1.16586,0 -3.23451,4.70106 -2.55352,5.80293 0.30037,0.48599 0.15491,0.88364 -0.32325,0.88364 -1.1541,0 -7.01737,13.34165 -6.34289,14.43299 0.28913,0.46782 0.13947,0.85059 -0.33258,0.85059 -1.16586,0 -3.23451,4.70106 -2.55352,5.80292 0.30037,0.486 0.15491,0.88364 -0.32325,0.88364 -1.1541,0 -7.01737,13.34165 -6.34289,14.433 0.28913,0.46782 0.15009,0.85059 -0.30898,0.85059 -1.37509,0 -4.05509,6.52799 -3.39075,8.25923 0.37526,0.97789 0.23384,1.36995 -0.36143,1.00204 -1.30855,-0.80873 -3.27761,3.66914 -2.5021,5.69008 0.36756,0.95785 0.22865,1.3625 -0.34584,1.00745 -1.31108,-0.81029 -4.24382,5.5862 -3.4772,7.58401 0.37801,0.98507 0.23498,1.37065 -0.36982,0.99686 -1.12058,-0.69256 -7.26027,12.44332 -6.43791,13.77392 0.28913,0.46782 0.15009,0.85059 -0.30898,0.85059 -1.11635,0 -4.2204,6.60007 -3.58646,7.62581 0.27467,0.44441 0.0934,0.9522 -0.40284,1.12842 -1.23988,0.44029 -8.77671,17.0335 -8.17731,18.00332 0.26539,0.42943 0.1048,0.92494 -0.35685,1.10116 -1.34527,0.51349 -5.9842,10.33025 -5.35935,11.34128 0.31253,0.50567 0.22048,0.92043 -0.20456,0.92168 -0.42503,9.6e-4 -2.0272,2.4029 -3.56036,5.33701 -4.91368,9.40359 8.96531,8.49365 -131.85643,8.64479 -68.32192,0.0734 -125.29067,-0.0774 -126.59722,-0.33489 z"
   id="path4632"
   inkscape:connector-curvature="0"
   transform="scale(0.89751758)" /><path
   style="fill:#f9f9f9;stroke-width:0.95522386"
   d="m 149.20597,486.33304 c -11.94398,-0.68092 -18.26139,-3.49248 -26.96547,-12.001 -12.95937,-12.66818 -16.15753,-30.85943 -8.26298,-47.00015 3.15494,-6.45041 9.72288,-13.7312 15.37469,-17.04338 2.25091,-1.31912 4.09257,-2.6953 4.09257,-3.05817 0,-0.98732 2.92315,-1.23043 18.38806,-1.52927 8.37448,-0.16183 14.08955,0.0929 14.08955,0.62792 0,0.4951 0.42985,0.63451 0.95522,0.30982 0.52538,-0.3247 0.96181,-0.0277 0.96985,0.66004 0.0106,0.9086 0.26775,0.85873 0.9406,-0.18243 0.80066,-1.23893 0.92795,-1.21716 0.9406,0.1609 0.008,0.87655 1.45741,2.48542 3.22081,3.57526 4.40639,2.7233 11.17773,10.13667 14.48637,15.8599 1.51417,2.61918 3.0234,4.97707 3.35384,5.23976 0.33045,0.26269 0.7094,5.19768 0.84212,10.96666 0.13272,5.76898 0.44567,10.81972 0.69545,11.22388 0.24979,0.40416 -0.001,0.73483 -0.55744,0.73483 -0.55638,0 -1.0116,0.69207 -1.0116,1.53793 0,3.06157 -6.29805,13.38073 -11.17142,18.30403 -4.7562,4.80493 -15.01966,10.72276 -18.59973,10.72445 -0.87562,4.2e-4 -1.73532,0.32314 -1.91044,0.71717 -0.17513,0.39403 -4.61692,0.47137 -9.87065,0.17185 z"
   id="path4634"
   inkscape:connector-curvature="0"
   transform="scale(0.89751758)" /></svg>