<?xml version="1.0" encoding="iso-8859-1"?>
<!-- Generator: Adobe Illustrator 19.0.0, SVG Export Plug-In . SVG Version: 6.00 Build 0)  -->
<svg version="1.1" id="Layer_1" xmlns="http://www.w3.org/2000/svg" xmlns:xlink="http://www.w3.org/1999/xlink" x="0px" y="0px"
	 viewBox="0 0 512 512" style="enable-background:new 0 0 512 512;" xml:space="preserve">
<g>
	<g>
		<path d="M468.32,53.08H43.68C19.595,53.08,0,72.675,0,96.76V415.24c0,24.085,19.595,43.68,43.68,43.68H468.32
			c24.085,0,43.68-19.595,43.68-43.68V96.76C512,72.675,492.405,53.08,468.32,53.08z M495.413,415.24
			c0,14.939-12.153,27.093-27.093,27.093H43.68c-14.94,0-27.093-12.154-27.093-27.093V96.76c0-14.939,12.153-27.093,27.093-27.093
			H468.32c14.94,0,27.093,12.154,27.093,27.093V415.24z"/>
	</g>
</g>
<g>
	<g>
		<path d="M459.473,166.981c4.581,0,8.294-3.713,8.294-8.294v-53.08c0-4.58-3.712-8.294-8.294-8.294h-53.08
			c-4.581,0-8.294,3.713-8.294,8.294c0,4.58,3.712,8.294,8.294,8.294h33.935L256,245.802L71.672,113.901h33.935
			c4.581,0,8.294-3.713,8.294-8.294c0-4.58-3.712-8.294-8.294-8.294h-53.08c-4.581,0-8.294,3.713-8.294,8.294v53.08
			c0,4.58,3.712,8.294,8.294,8.294c4.581,0,8.294-3.713,8.294-8.294v-32.155L241.748,256L60.821,385.469v-32.155
			c0-4.58-3.712-8.294-8.294-8.294c-4.581,0-8.294,3.713-8.294,8.294v53.08c0,4.58,3.712,8.294,8.294,8.294h53.08
			c4.581,0,8.294-3.713,8.294-8.294c0-4.58-3.712-8.294-8.294-8.294H71.672L256,266.198l184.328,131.901h-33.935
			c-4.581,0-8.294,3.713-8.294,8.294c0,4.58,3.712,8.294,8.294,8.294h53.08c4.581,0,8.294-3.713,8.294-8.294v-53.08
			c0-4.58-3.712-8.294-8.294-8.294c-4.581,0-8.294,3.713-8.294,8.294v32.155L270.252,256l180.927-129.469v32.155
			C451.179,163.267,454.892,166.981,459.473,166.981z"/>
	</g>
</g>
<g>
</g>
<g>
</g>
<g>
</g>
<g>
</g>
<g>
</g>
<g>
</g>
<g>
</g>
<g>
</g>
<g>
</g>
<g>
</g>
<g>
</g>
<g>
</g>
<g>
</g>
<g>
</g>
<g>
</g>
</svg>
